<svg
   width="66"
   height="66"
   viewBox="0 0 66.145844 66.145836"
   version="1.1"
   id="svg5"
   xml:space="preserve"
   xmlns="http://www.w3.org/2000/svg"
   xmlns:svg="http://www.w3.org/2000/svg"><defs
     id="defs2" /><g
     id="layer1"
     transform="translate(-63.479234,-101.66123)"><path
       style="fill:#7e21c7;fill-opacity:1;stroke-width:0.275607"
       d="m 63.479234,134.73414 v -33.07291 h 33.07292 33.072916 v 33.07291 33.07291 H 96.552154 63.479234 Z m 38.472086,21.77573 c 13.73047,-3.45452 20.91107,-18.59598 14.86795,-31.35148 -5.42013,-11.44053 -18.653482,-15.97178 -30.188997,-10.33706 l -3.169493,1.5482 -2.635406,2.63663 -2.635406,2.63662 -1.416532,2.89389 c -3.622851,7.40126 -3.418538,14.53501 0.618985,21.61332 l 1.24521,2.18301 v 4.36268 4.36267 h 10.566813 10.566804 z m -22.638516,-17.49262 -0.744766,-0.74476 0.128281,-1.99956 c 0.159766,-2.48954 0.847922,-3.98341 2.146172,-4.65901 l 0.964625,-0.50204 2.467664,0.15844 c 3.154523,0.20258 3.032195,-0.0156 2.462601,4.39381 l -0.485077,3.75534 h -0.913461 c -0.729688,0 -0.913462,-0.11088 -0.913462,-0.55125 0,-0.69173 -0.112187,-0.68853 -1.084906,0.0305 -0.432812,0.32 -1.348562,0.64516 -2.034937,0.7225 l -1.247969,0.14062 z m 4.354687,-2.36803 c 0.437734,-0.47438 0.759532,-1.13968 0.76164,-1.57492 0.0021,-0.41446 0.07851,-1.03262 0.169923,-1.37368 l 0.166171,-0.62009 h -1.400492 c -1.625515,0 -1.837938,0.2418 -2.127039,2.42115 -0.331015,2.49535 0.725469,2.99435 2.429719,1.14757 z m 4.89203,2.49465 c -0.664375,-0.66438 -0.66039,-0.47313 -0.09399,-4.47863 l 0.45789,-3.23839 h 1.217992 1.217993 l -0.148204,0.75789 c -0.941125,4.81266 -0.818421,5.77801 0.668516,5.25966 1.311102,-0.45702 1.723602,-1.18925 2.037258,-3.61622 l 0.292579,-2.26355 1.171327,-0.0847 c 0.644219,-0.0469 1.172203,0.0156 1.173265,0.13781 0.0031,0.3364 -0.840031,6.47151 -0.98675,7.18164 -0.104212,0.50445 -0.313046,0.62015 -1.11964,0.62015 h -0.991515 l 0.14414,-0.55125 c 0.190079,-0.72688 -0.118675,-0.69523 -1.346312,0.13781 -1.274032,0.86459 -2.906805,0.9255 -3.694484,0.13781 z m 19.148059,0.16647 c -1.54229,-0.67195 -2.02208,-3.55765 -0.97499,-5.86385 1.35359,-2.98127 6.72323,-3.16042 7.67152,-0.25594 1.37572,4.21363 -2.64275,7.88603 -6.69653,6.11982 z m 3.89333,-2.53401 c 0.22859,-0.54703 0.37633,-1.56374 0.33047,-2.27376 l -0.0831,-1.28428 -0.97871,-0.0822 c -1.28879,-0.10837 -1.88394,0.5639 -2.09778,2.3694 -0.23125,1.95231 -0.0555,2.26039 1.29046,2.26039 h 1.12513 z m -12.843904,2.46705 c 0,-0.34883 -1.127883,-6.86309 -1.269843,-7.33423 l -0.145313,-0.48233 h 1.35871 1.35871 l 0.19524,2.40565 c 0.26007,3.20585 0.4257,3.93332 0.89517,3.93332 0.63352,0 1.38272,-1.95007 2.14426,-5.58106 l 0.15899,-0.75789 h 1.23498 c 0.80599,0 1.23384,0.11975 1.23171,0.34453 -0.0141,1.46575 -1.81627,5.9622 -2.81677,7.02718 l -0.58336,0.62094 h -1.88121 c -1.034665,0 -1.88122,-0.0792 -1.88122,-0.1761 z"
       id="path18991" /></g></svg>
